<svg width="122" height="128" viewBox="0 0 122 128" fill="none" xmlns="http://www.w3.org/2000/svg">
  <path d="M107.703 19.949L102.986 15L14.2969 108.051L19.0139 113L25.6858 106H94.3594C96.1281 105.997 97.8235 105.259 99.0742 103.947C100.325 102.635 101.029 100.856 101.031 99V26.949L107.703 19.949ZM94.3594 99H32.3576L58.3546 71.7245L66.2908 80.051C67.542 81.3633 69.2387 82.1005 71.0078 82.1005C72.777 82.1005 74.4737 81.3633 75.7248 80.051L81.0156 74.5L94.3594 88.4895V99ZM94.3594 78.588L85.7326 69.537C84.4815 68.2247 82.7848 67.4875 81.0156 67.4875C79.2465 67.4875 77.5498 68.2247 76.2986 69.537L71.0078 75.088L63.0783 66.7685L94.3594 33.949V78.588Z" fill="#D9DBE9"/>
  <path d="M27.6406 85V74.5L44.3203 57.0105L48.9006 61.8195L53.6242 56.8635L49.0373 52.051C47.7862 50.7387 46.0895 50.0015 44.3203 50.0015C42.5512 50.0015 40.8545 50.7387 39.6033 52.051L27.6406 64.602V29H81.0156V22H27.6406C25.8717 22.0019 24.1757 22.7399 22.9248 24.0523C21.674 25.3647 20.9705 27.1441 20.9688 29V85H27.6406Z" fill="#D9DBE9"/>
</svg>