<svg width="32" height="32" viewBox="0 0 32 32" fill="none" xmlns="http://www.w3.org/2000/svg">
<path d="M4.45725 6.96094C4.16167 7.31923 4 7.76923 4 8.23371V26.3334C4 27.9902 5.34315 29.3334 7 29.3334H25C26.6569 29.3334 28 27.9902 28 26.3334V8.23371C28 7.76923 27.8383 7.31923 27.5427 6.96094L24.6 3.39394C24.22 2.93342 23.6542 2.66671 23.0572 2.66671H8.94278C8.34576 2.66671 7.77996 2.93342 7.40003 3.39394L4.45725 6.96094Z" stroke="#A0A3BD" stroke-width="2"/>
<path d="M4 8H28" stroke="#A0A3BD" stroke-width="2"/>
<path d="M21.3334 13.3334C21.3334 16.2789 18.9455 18.6667 16 18.6667C13.0545 18.6667 10.6667 16.2789 10.6667 13.3334" stroke="#A0A3BD" stroke-width="2" stroke-linecap="round"/>
</svg>
