<svg width="18" height="18" viewBox="0 0 18 18" fill="none" xmlns="http://www.w3.org/2000/svg">
<path d="M5.25 2.5H8.0625V0.5H5.25V2.5ZM3.25 8.89286V4.5H1.25V8.89286H3.25ZM1.25 8.89286C1.25 10.747 2.75304 12.25 4.60714 12.25V10.25C3.85761 10.25 3.25 9.64239 3.25 8.89286H1.25ZM8.0625 2.5C8.85641 2.5 9.5 3.14359 9.5 3.9375H11.5C11.5 2.03902 9.96098 0.5 8.0625 0.5V2.5ZM5.25 0.5C3.04086 0.5 1.25 2.29086 1.25 4.5H3.25C3.25 3.39543 4.14543 2.5 5.25 2.5V0.5Z" fill="#6E7191"/>
<rect x="7.5" y="6.75" width="8.25" height="9.75" rx="3" stroke="#6E7191" stroke-width="2"/>
</svg>
