<svg width="18" height="16" viewBox="0 0 18 16" fill="none" xmlns="http://www.w3.org/2000/svg">
<g clip-path="url(#clip0_3924_3352)">
<path d="M14.85 13.4H3.15C2.9025 13.4 2.7 13.6025 2.7 13.85V14.75C2.7 14.9975 2.9025 15.2 3.15 15.2H14.85C15.0975 15.2 15.3 14.9975 15.3 14.75V13.85C15.3 13.6025 15.0975 13.4 14.85 13.4ZM16.65 4.40005C15.9047 4.40005 15.3 5.00474 15.3 5.75005C15.3 5.94974 15.345 6.13536 15.4237 6.30692L13.3875 7.52755C12.9544 7.7863 12.3947 7.64005 12.1444 7.2013L9.85219 3.19067C10.1531 2.94317 10.35 2.57192 10.35 2.15005C10.35 1.40474 9.74531 0.800049 9 0.800049C8.25469 0.800049 7.65 1.40474 7.65 2.15005C7.65 2.57192 7.84688 2.94317 8.14781 3.19067L5.85562 7.2013C5.60531 7.64005 5.04281 7.7863 4.6125 7.52755L2.57906 6.30692C2.655 6.13817 2.70281 5.94974 2.70281 5.75005C2.70281 5.00474 2.09812 4.40005 1.35281 4.40005C0.6075 4.40005 0 5.00474 0 5.75005C0 6.49536 0.604688 7.10005 1.35 7.10005C1.42312 7.10005 1.49625 7.0888 1.56656 7.07755L3.6 12.5H14.4L16.4334 7.07755C16.5037 7.0888 16.5769 7.10005 16.65 7.10005C17.3953 7.10005 18 6.49536 18 5.75005C18 5.00474 17.3953 4.40005 16.65 4.40005Z" fill="#6E7191"/>
</g>
<defs>
<clipPath id="clip0_3924_3352">
<rect width="18" height="14.4" fill="white" transform="translate(0 0.800049)"/>
</clipPath>
</defs>
</svg>
