<svg width="32" height="32" viewBox="0 0 32 32" fill="none" xmlns="http://www.w3.org/2000/svg">
<path d="M4 13.0997C4 12.1512 4.44853 11.2586 5.20956 10.6926L16 2.66663L26.7904 10.6926C27.5515 11.2586 28 12.1512 28 13.0997V26.8333C28 28.214 26.8807 29.3333 25.5 29.3333H20.6C20.0477 29.3333 19.6 28.8856 19.6 28.3333V20.7424C19.6 20.4662 19.3761 20.2424 19.1 20.2424H12.9C12.6239 20.2424 12.4 20.4662 12.4 20.7424V28.3333C12.4 28.8856 11.9523 29.3333 11.4 29.3333H6.5C5.11929 29.3333 4 28.214 4 26.8333V13.0997Z" stroke="#3B89A1" stroke-width="2" stroke-linecap="round" stroke-linejoin="round"/>
</svg>
