<svg width="24" height="24" viewBox="0 0 24 24" fill="none" xmlns="http://www.w3.org/2000/svg">
<path d="M4 10.5211C4 9.5789 4.44263 8.69145 5.19525 8.12465L12 3L18.8047 8.12465C19.5574 8.69145 20 9.5789 20 10.5211V18.5C20 19.8807 18.8807 21 17.5 21H15.4C14.8477 21 14.4 20.5523 14.4 20V15.3636C14.4 15.0875 14.1761 14.8636 13.9 14.8636H10.1C9.82386 14.8636 9.6 15.0875 9.6 15.3636V20C9.6 20.5523 9.15228 21 8.6 21H6.5C5.11929 21 4 19.8807 4 18.5V10.5211Z" stroke="#FCFCFC" stroke-width="2" stroke-linecap="round" stroke-linejoin="round"/>
</svg>
